<svg id="Layer_1" data-name="Layer 1" xmlns="http://www.w3.org/2000/svg" viewBox="0 0 375.99 380"><title>fav</title><path d="M255.41,408.56c-27.67,0-51.32-21.91-51.32-52.48,0-34.31,30-57.28,51.34-80.14,8,7.66,16.37,16,25.22,24.1,14.75,16.53,27.25,35.81,27.25,57.77,0,30-21.91,50.75-52.48,50.75m-154-154c0-28.83,21.93-52.48,51.91-52.48,34.16,0,57.64,30.33,80.42,51.64-7.65,8-16,16.29-24,25.11-16.73,14.68-36.11,27.06-58.18,27.06-29.4,0-50.17-21.91-50.17-51.32m154-155.13c28.84,0,52.48,21.91,52.48,51.91,0,34.45-30.87,58-52.2,81-6.59-6.46-13.41-13.36-20.55-20.12-16.35-17.72-31.06-38.58-31.06-62.63,0-29.41,21.93-50.17,51.32-50.17M410.54,254.58c0,27.69-21.91,51.32-52.48,51.32-34.58,0-57.64-30.54-80.69-51.86,0,0,0,0,0,0,6.17-6.3,12.78-12.84,19.28-19.66,17.67-16.8,38.79-32.23,63.18-32.23,30,0,50.74,21.91,50.74,52.48m33.45,0c0-49.6-34-84.19-81.31-84.19-3.06,0-6,.14-8.94.41,13.12-13.31,23.83-25.66,28.42-36.73,8.53-20.49,7.25-45-9.61-61.84-2.17-2.17-8-7.61-11.6-4-3.09,3.09-5.62,11.07-1.8,14.88a31.27,31.27,0,0,0,7.79,5.6,39.79,39.79,0,0,1,8.88,6.35c3.82,3.82,3.82,8.17,2.55,12-4.1,12-28,37.23-38.91,48.33,0-1.16.17-2.28.17-3.45C339.62,102.33,301,66,255.41,66c-48.44,0-83,33.45-83,81.32,0,2.8.14,5.56.36,8.25-10.84-11-35-36.49-39.1-48.52-1.27-3.8-1.27-8.15,2.53-12a40.15,40.15,0,0,1,8.88-6.35,31.37,31.37,0,0,0,7.8-5.6c3.8-3.82,1.28-11.79-1.8-14.88-3.63-3.63-9.44,1.82-11.62,4-16.86,16.86-18.13,41.35-9.61,61.84,4.58,11,15.18,23.29,28.23,36.52-1.38-.08-2.72-.21-4.13-.21C104.32,170.39,68,209,68,254.58c0,48.44,33.44,83,81.31,83,3,0,6-.14,8.91-.41-14.58,14.58-26.55,28.07-31.54,40.08-8.74,21-7.44,46.08,9.85,63.37,2.22,2.23,8.18,7.8,11.91,4.1,3.15-3.17,5.75-11.35,1.84-15.25a32.16,32.16,0,0,0-8-5.76,40.53,40.53,0,0,1-9.1-6.51c-3.91-3.89-3.91-8.37-2.61-12.27,4.46-13,31.79-41.45,41.83-51.48l.09-.09c0,.89-.13,1.77-.13,2.68,0,49.6,38.63,85.93,83,85.93,49.6,0,84.21-34,84.21-81.32,0-2.55-.14-5-.33-7.49l.3.3c10,10,37.36,38.47,41.83,51.48,1.3,3.89,1.28,8.37-2.61,12.27a40.9,40.9,0,0,1-9.1,6.51,32.26,32.26,0,0,0-8,5.76c-3.89,3.89-1.3,12.08,1.85,15.25,3.72,3.7,9.67-1.87,11.91-4.1,17.29-17.29,18.59-42.38,9.85-63.37-5-12-16.86-25.36-31.33-39.88,1.36.08,2.71.21,4.08.21,49.6,0,85.93-38.63,85.93-83" transform="translate(-68 -66)" style="fill:#fff"/><path d="M204.88,365a52.34,52.34,0,0,0,7.31,19.69,181.65,181.65,0,0,1,88.46.24,50,50,0,0,0,6.76-19.85A181.37,181.37,0,0,0,204.88,365" transform="translate(-68 -66)" style="fill:#fff"/><path d="M224.52,308.43c-6.55,7.84-12.24,16.18-15.93,25.35a181.52,181.52,0,0,1,94.32-.16,105.61,105.61,0,0,0-15.21-25.16,181.37,181.37,0,0,0-63.18,0" transform="translate(-68 -66)" style="fill:#fff"/><path d="M307.23,143a51,51,0,0,0-7.35-19.69,181.53,181.53,0,0,1-88.62-.25,49.69,49.69,0,0,0-6.7,19.87,181.39,181.39,0,0,0,102.67.08" transform="translate(-68 -66)" style="fill:#fff"/><path d="M286.89,199.71c6.65-7.87,12.44-16.23,16.26-25.38a181.51,181.51,0,0,1-93.83.11,108.37,108.37,0,0,0,15.07,25.11,181.73,181.73,0,0,0,62.5.16" transform="translate(-68 -66)" style="fill:#fff"/></svg>