<svg id="Layer_1" data-name="Layer 1" xmlns="http://www.w3.org/2000/svg" xmlns:xlink="http://www.w3.org/1999/xlink" viewBox="0 0 53.64 54.21"><defs><linearGradient id="New_Gradient_Swatch_1" y1="27.1" x2="53.64" y2="27.1" gradientUnits="userSpaceOnUse"><stop offset="0" stop-color="#d9a380"/><stop offset="1" stop-color="#895b4d"/></linearGradient></defs><title>bug</title><path d="M53.64,26.9c0-7.08-4.85-12-11.6-12-.44,0-.86,0-1.28.06a19,19,0,0,0,4.05-5.24A8,8,0,0,0,43.44.89C43.13.58,42.31-.2,41.79.32S41,1.9,41.53,2.44a4.46,4.46,0,0,0,1.11.8,5.68,5.68,0,0,1,1.27.91,1.56,1.56,0,0,1,.36,1.71c-.58,1.71-4,5.31-5.55,6.89,0-.16,0-.33,0-.49A12,12,0,0,0,26.73,0C19.82,0,14.89,4.77,14.89,11.6c0,.4,0,.79.05,1.18-1.55-1.57-5-5.21-5.58-6.92a1.56,1.56,0,0,1,.36-1.71A5.73,5.73,0,0,1,11,3.24a4.48,4.48,0,0,0,1.11-.8c.54-.54.18-1.68-.26-2.12S10.5.58,10.19.89A8,8,0,0,0,8.82,9.71a18.89,18.89,0,0,0,4,5.21c-.2,0-.39,0-.59,0A12,12,0,0,0,0,26.9c0,6.91,4.77,11.84,11.6,11.84.43,0,.86,0,1.27-.06-2.08,2.08-3.79,4-4.5,5.72a8.14,8.14,0,0,0,1.4,9c.32.32,1.17,1.11,1.7.58s.82-1.62.26-2.17A4.59,4.59,0,0,0,10.6,51a5.78,5.78,0,0,1-1.3-.93,1.6,1.6,0,0,1-.37-1.75c.64-1.86,4.53-5.91,6-7.34h0c0,.13,0,.25,0,.38A12,12,0,0,0,26.73,53.64c7.08,0,12-4.85,12-11.6,0-.36,0-.72,0-1.07l0,0c1.43,1.43,5.33,5.49,6,7.34a1.6,1.6,0,0,1-.37,1.75A5.84,5.84,0,0,1,43,51a4.6,4.6,0,0,0-1.14.82c-.56.56-.19,1.72.26,2.17s1.38-.27,1.7-.58a8.14,8.14,0,0,0,1.4-9c-.71-1.71-2.41-3.62-4.47-5.69l.58,0A12,12,0,0,0,53.64,26.9Zm-19.53-16q0-.29-.12-.57Q34.06,10.6,34.11,10.89Zm-.16-.75c-.05-.18-.11-.36-.17-.54C33.84,9.78,33.89,10,33.94,10.14Zm-.24-.72c-.07-.17-.14-.34-.22-.5C33.57,9.09,33.64,9.25,33.71,9.43Zm-.3-.68c-.08-.16-.17-.32-.27-.48C33.23,8.43,33.32,8.59,33.4,8.75Zm-6.67-4a7.44,7.44,0,0,1,6.34,3.4,25.89,25.89,0,0,1-12.64,0,7.09,7.09,0,0,0-1,2.83,25.87,25.87,0,0,0,14.64,0,7.81,7.81,0,0,1,.1,1.19,8.42,8.42,0,0,1-.68,3.28,25.89,25.89,0,0,1-13.38,0c.12.29.26.58.4.87a9.72,9.72,0,0,1-1.15-4.41A7,7,0,0,1,26.73,4.77Zm6.78,10.74c-.13.3-.27.6-.43.89Q33.33,16,33.52,15.51Zm-.48,1q-.21.39-.45.76Q32.83,16.87,33,16.49Zm-.64,1-.38.54Zm-.61.85-.41.51Zm-.56.7c-1.4,1.66-3.06,3.17-4.44,4.66-.94-.92-1.91-1.91-2.93-2.87a25.46,25.46,0,0,1-2.15-2.64q.29.42.61.83A25.92,25.92,0,0,0,31.22,19.07Zm-9.55-.89c-.18-.26-.36-.53-.52-.8C21.32,17.66,21.49,17.93,21.67,18.19Zm-.61-.95c-.16-.27-.31-.54-.45-.81C20.75,16.7,20.9,17,21.06,17.24Zm-9.13,17A7,7,0,0,1,4.77,26.9a7.34,7.34,0,0,1,7.41-7.49c4.87,0,8.22,4.33,11.47,7.37-1.09,1.14-2.28,2.32-3.42,3.58C17.84,32.46,15.07,34.22,11.93,34.22ZM33.22,45.44c.1-.16.19-.33.27-.51Q33.37,45.19,33.22,45.44Zm.34-.65c.08-.17.15-.34.21-.52C33.71,44.44,33.64,44.61,33.56,44.78Zm.27-.7c.06-.17.11-.35.15-.53C33.94,43.73,33.89,43.91,33.83,44.09Zm.2-.73c0-.19.07-.38.1-.57C34.1,43,34.07,43.17,34,43.36Zm.12-.7a25.87,25.87,0,0,0-14.62,0,7.47,7.47,0,0,0,1,2.81,25.91,25.91,0,0,1,12.62,0,7.28,7.28,0,0,1-6.45,3.37,7.32,7.32,0,0,1-7.32-7.49c0-4.89,4.28-8.17,7.32-11.43,1.14,1.09,2.34,2.29,3.6,3.44.35.39.68.79,1,1.2a25.87,25.87,0,0,0-9,0,13.68,13.68,0,0,0-2.27,3.62,25.89,25.89,0,0,1,13.45,0,9.08,9.08,0,0,1,.72,3.45A8.3,8.3,0,0,1,34.15,42.66Zm-2.69-7.92c.16.21.32.42.48.64C31.78,35.17,31.62,35,31.46,34.75Zm.71,1c.13.19.25.37.37.56C32.42,36.09,32.29,35.91,32.16,35.72Zm.74,1.22.17.29Zm-3-10.11h0c.88-.9,1.82-1.83,2.75-2.8,2.52-2.4,5.53-4.6,9-4.6,4.28,0,7.24,3.13,7.24,7.49a7.32,7.32,0,0,1-7.49,7.32C36.44,34.22,33.15,29.87,29.87,26.82Z" style="fill:url(#New_Gradient_Swatch_1)"/></svg>