<svg id="2d274dbf-8631-4fb5-93a2-fb40cd8fea0f" data-name="Layer 1" xmlns="http://www.w3.org/2000/svg" viewBox="0 0 155.37 155.37"><title>service--info</title><circle cx="77.68" cy="77.68" r="76.18" style="fill:#fff;stroke:#e8e3db;stroke-miterlimit:10;stroke-width:3px"/><path d="M83.42,87.73V84.65A.59.59,0,0,0,82.8,84H81V74.17a.59.59,0,0,0-.62-.62H74.17a.59.59,0,0,0-.62.62v3.08a.59.59,0,0,0,.62.62H76V84H74.17a.59.59,0,0,0-.62.62v3.08a.59.59,0,0,0,.62.62H82.8a.59.59,0,0,0,.62-.62ZM81,70.48V67.39a.59.59,0,0,0-.62-.62h-3.7a.59.59,0,0,0-.62.62v3.08a.59.59,0,0,0,.62.62h3.7a.59.59,0,0,0,.62-.62Z" transform="translate(0)" style="fill:#1e2b45"/><path d="M77.69,55.74a21.95,21.95,0,1,1-22,21.91A21.93,21.93,0,0,1,77.69,55.74Z" transform="translate(0)" style="fill:none;stroke:#1e2b45;stroke-miterlimit:10;stroke-width:2px"/></svg>