<svg id="bd8a6f4c-f88c-4a49-9aa9-d9ab7f6ec189" data-name="Layer 1" xmlns="http://www.w3.org/2000/svg" viewBox="0 0 155.37 155.37"><title>service--dollar</title><circle cx="77.68" cy="77.68" r="76.18" style="fill:#fff;stroke:#e8e3db;stroke-miterlimit:10;stroke-width:3px"/><path d="M72.94,82.53a8,8,0,0,0,5,2.1c1.51,0,2.88-.78,2.88-2.41,0-3.36-9.46-3-9.46-9,0-2.88,2.16-5.12,5.26-5.63V64.92H79v2.58a8.06,8.06,0,0,1,4.93,2l-1.57,2.94A7.26,7.26,0,0,0,78,70.74c-1.68,0-3,1-3,2.38,0,3.33,9.44,2.74,9.44,9A5.77,5.77,0,0,1,79,87.88v2.58H76.58V87.88A9.42,9.42,0,0,1,71,85.24Z" style="fill:#1e2b45"/><path d="M77.69,55.74a21.95,21.95,0,1,1-22,21.91A21.93,21.93,0,0,1,77.69,55.74Z" style="fill:none;stroke:#1e2b45;stroke-miterlimit:10;stroke-width:2px"/></svg>