<svg id="77ddfb76-56ee-4243-ab63-f60ab2ea6aaf" data-name="Layer 1" xmlns="http://www.w3.org/2000/svg" viewBox="0 0 155.37 155.37"><title>service--arrow</title><circle cx="77.68" cy="77.68" r="76.18" style="fill:#fff;stroke:#e8e3db;stroke-miterlimit:10;stroke-width:3px"/><path d="M64.44,74.9l8.5,8.52,3.15-2.78-4-3.57c3.78,0,7.4,0,11,0a3.85,3.85,0,0,1,3.72,3.85,3.9,3.9,0,0,1-3.77,4c-.71,0-1.41,0-2.17,0V89c.77,0,1.44,0,2.11,0a8,8,0,0,0,1.71-15.73A11.78,11.78,0,0,0,82.13,73c-3.34,0-6.68,0-10,0l-.19-.38,3.82-3.42L73,66.37Z" style="fill:#1e2b45"/><path d="M77.69,55.74a21.95,21.95,0,1,1-22,21.91A21.93,21.93,0,0,1,77.69,55.74Z" style="fill:none;stroke:#1e2b45;stroke-miterlimit:10;stroke-width:2px"/></svg>