<svg id="f82ce6fd-bab3-47ce-9f94-77f1a4bb626b" data-name="Layer 1" xmlns="http://www.w3.org/2000/svg" viewBox="0 0 155.37 155.37"><title>service--check</title><circle cx="77.68" cy="77.68" r="76.18" style="fill:#fff;stroke:#e8e3db;stroke-miterlimit:10;stroke-width:3px"/><path d="M89,62.29h6.24c1.2,0,1.29.09,1.29,1.33q0,16.5,0,33c0,1.31-.08,1.39-1.42,1.39H60.2c-1.32,0-1.39-.07-1.39-1.42q0-16.45,0-32.91c0-1.33.07-1.39,1.41-1.39h5.93c0-1.29,0-2.54,0-3.78,0-.83.23-1.17,1.09-1.15,2.89,0,2.38-.22,2.42,2.39,0,.8,0,1.6,0,2.47H85.52c0-1.21,0-2.46,0-3.7,0-.83.23-1.17,1.09-1.16,2.88,0,2.4-.22,2.43,2.38C89,60.56,89,61.38,89,62.29ZM66.16,64.23H62c-1.11,0-1.18.08-1.18,1.22q0,14.8,0,29.59c0,1.17,0,1.21,1.17,1.21H93.38c1.16,0,1.17,0,1.17-1.2q0-14.8,0-29.59c0-.18.06-.41,0-.54s-.38-.64-.58-.65c-1.62-.05-3.23,0-4.89,0,0,.28,0,.45,0,.63,0,2.52.55,2.35-2.57,2.34h-.18c-.5,0-.78-.26-.76-.82s0-1.4,0-2.09H69.65c0,.78,0,1.48,0,2.18s-.47.8-.94.71c-.85-.17-1.94.59-2.54-.58-.09-.17,0-.42,0-.64C66.16,65.44,66.16,64.89,66.16,64.23ZM76,83.18c-1.68-1.62-3.37-3.23-5-4.86a1,1,0,0,0-1.57,0c-.37.41-.78.79-1.16,1.18-.79.81-.79,1,0,1.8l7.3,7c.92.88,1.07.89,1.93,0q4.71-4.93,9.4-9.88c2-2.07,2-1.7-.11-3.7-1-.91-1.09-.9-2,.05L76.5,83.6C76.29,83.42,76.15,83.3,76,83.18Z" transform="translate(0)" style="fill:#1e2b45"/></svg>