<svg id="12091c8a-acbb-4573-952d-b8d075cfc27a" data-name="Layer 1" xmlns="http://www.w3.org/2000/svg" viewBox="0 0 155.37 155.37"><title>service--question</title><circle cx="77.68" cy="77.68" r="76.18" style="fill:#fff;stroke:#e8e3db;stroke-miterlimit:10;stroke-width:3px"/><path d="M73,68.9a13.24,13.24,0,0,1,1.45-.62A7.61,7.61,0,0,1,76,68a2.74,2.74,0,0,1,1.66.35,1.89,1.89,0,0,1,.65,2.46,13,13,0,0,1-1.89,2.69,7.05,7.05,0,0,0-1.63,5.15c0,.28.11.37.39.36,1.14,0,2.27,0,3.41,0,.46,0,.48,0,.46-.47A5,5,0,0,1,80,75.43c.49-.68,1.06-1.29,1.59-1.93a7,7,0,0,0,1.81-4,4.63,4.63,0,0,0-3.47-4.94,10.49,10.49,0,0,0-7.69.81c-.23.11-.19.25-.13.42l.68,2.17Zm1,14.46a2.84,2.84,0,1,0,2.88-2.85A2.8,2.8,0,0,0,74,83.36Z" transform="translate(0)" style="fill:#1e2b45"/><path d="M68.39,99.25c0-.43,0-.76.05-1.09.05-2.13.1-4.27.16-6.4a.44.44,0,0,0-.27-.45A18.83,18.83,0,1,1,96.25,78.1a18.39,18.39,0,0,1-2,5.83,18.8,18.8,0,0,1-5.1,6,18.52,18.52,0,0,1-8.57,3.67c-1,.15-2,.15-3,.23a1.35,1.35,0,0,0-.58.15q-3.62,2.21-7.23,4.45Z" transform="translate(0)" style="fill:none;stroke:#1e2b45;stroke-miterlimit:10;stroke-width:2.0368549823761px"/></svg>