<svg id="595d3877-bcfa-4ee5-8b95-24e8867a07d9" data-name="Layer 1" xmlns="http://www.w3.org/2000/svg" viewBox="0 0 80.24 40.53"><title>social--yelp-full</title><path d="M77.1,21.53l-.14,0a4.35,4.35,0,0,0,2.93-5.94,14.29,14.29,0,0,0-3.69-5.07,4.35,4.35,0,0,0-2.87-1.08,4.28,4.28,0,0,0-3.69,2V4.34A4.33,4.33,0,0,0,65.32,0a20.07,20.07,0,0,0-4.21.68A21.52,21.52,0,0,0,57.42,2a4.34,4.34,0,0,0-1.89,6.09l3.54,6.13a4.35,4.35,0,0,0-6.15,2.45l-.13.39a7.79,7.79,0,0,0-2.08-1.43,8.59,8.59,0,0,0-3.66-.82,8.25,8.25,0,0,0-2.79.48,4.67,4.67,0,0,0-5.11.5V15a4.67,4.67,0,1,0-9.34,0v2.58a8.58,8.58,0,0,0-6.22-2.6,8.8,8.8,0,0,0-5.47,2,4.71,4.71,0,0,0-8.33,1.36l-.2.64L9,17.61a4.71,4.71,0,0,0-6.3-2.17,4.71,4.71,0,0,0-2.17,6.3L4.95,30.9a4.49,4.49,0,0,0-2.72,3,4.54,4.54,0,0,0,.69,4,5.26,5.26,0,0,0,4.37,2h.26c3.4,0,5.89-1.68,6.83-4.62.39-1.21.83-2.63,1.29-4.09.08.19.17.37.27.55a8.13,8.13,0,0,0,7.58,4.33,9.36,9.36,0,0,0,6.87-2.5,4.66,4.66,0,0,0,7,1.42v.85a4.67,4.67,0,0,0,9.34.12,8.41,8.41,0,0,0,6.07-2.35A7.87,7.87,0,0,0,54,32.15a4,4,0,0,0,3.52.16,4.33,4.33,0,0,0,1,.9,14.58,14.58,0,0,0,5.8,2.35,4.37,4.37,0,0,0,.72.06,4.32,4.32,0,0,0,4.34-4.19v-.15l.08.13a4.34,4.34,0,0,0,6.45,1,14.58,14.58,0,0,0,3.85-4.93,4.34,4.34,0,0,0-2.58-6Z" style="fill:#fff"/><path d="M55.89,27.88a.92.92,0,1,1-.92.92A.91.91,0,0,1,55.89,27.88Zm0,1.7a.78.78,0,1,0-.78-.78A.77.77,0,0,0,55.89,29.58Zm-.34-1.31h.39c.25,0,.37.09.37.31a.27.27,0,0,1-.28.29l.31.47h-.16l-.29-.46H55.7v.46h-.15Zm.15.47h.18c.15,0,.29,0,.29-.17s-.13-.17-.24-.17H55.7Z" style="fill:#d9a380"/><path d="M36.14,31.37a1.65,1.65,0,1,1-3.3,0V15a1.65,1.65,0,0,1,3.3,0Z" style="fill:#d9a380;fill-rule:evenodd"/><path d="M21.87,26.78h6a1.77,1.77,0,0,0,1.6-1.84h0s0-.06,0-.09c-.29-6-4.16-6.89-5.91-6.89s-6,1.08-6,7.77c0,2.52.57,7.33,5.86,7.33,4.57,0,5.6-2.64,5.6-3.31a1.42,1.42,0,0,0-1.76-1.52c-.76.26-1.8,1.77-3.47,1.77a2.64,2.64,0,0,1-2.71-2.66C21.16,27,21.36,26.8,21.87,26.78Zm-.72-2.95a2.61,2.61,0,1,1,5.21,0c0,.12-.07.19-.14.19H21.29C21.22,24.07,21.14,24,21.15,23.84Z" style="fill:#d9a380"/><path d="M8.34,31,3.19,20.42a1.69,1.69,0,0,1,3-1.49l4,8.17,2.45-7.93a1.69,1.69,0,1,1,3.24,1s-2.76,9-4.42,14.2c-.55,1.71-2,2.56-4.14,2.51S4.9,35.58,5.14,34.76A1.65,1.65,0,0,1,6.9,33.57C8.82,33.58,9.07,32.42,8.34,31Z" style="fill:#d9a380"/><path d="M52.42,24.82c0-2.16-.27-5.13-3-6.42a5.37,5.37,0,0,0-4.9.12,8.71,8.71,0,0,0-.84.55,1.65,1.65,0,0,0-3.25.39v16.4a1.65,1.65,0,1,0,3.3,0v-4.3A4.16,4.16,0,0,0,46.61,33C52.87,33.12,52.46,26.31,52.42,24.82Zm-3.26,1.25c0,1.3,0,3.64-2.37,3.64s-2.37-2.34-2.37-3.64V24.88c0-1.3,0-3.64,2.37-3.64s2.37,2.34,2.37,3.64Z" style="fill:#d9a380"/><path d="M57.62,16.9l5.76,2.81a1.32,1.32,0,0,1-.26,2.47L56.9,23.73a1.32,1.32,0,0,1-1.63-1.13,11.36,11.36,0,0,1,.52-4.93A1.32,1.32,0,0,1,57.62,16.9Z" style="fill:#d9a380;fill-rule:evenodd"/><path d="M59.92,28.75,64.21,24a1.32,1.32,0,0,1,2.3.93l-.22,6.4a1.32,1.32,0,0,1-1.54,1.26,11.46,11.46,0,0,1-4.59-1.86A1.32,1.32,0,0,1,59.92,28.75Z" style="fill:#d9a380;fill-rule:evenodd"/><path d="M70.08,22.42l6.09,2A1.32,1.32,0,0,1,77,26.22a11.46,11.46,0,0,1-3,3.9,1.32,1.32,0,0,1-2-.32l-3.39-5.43A1.32,1.32,0,0,1,70.08,22.42Z" style="fill:#d9a380;fill-rule:evenodd"/><path d="M76.27,18.53,70.12,20.3a1.32,1.32,0,0,1-1.46-2L72.24,13a1.32,1.32,0,0,1,2-.25,11.36,11.36,0,0,1,2.91,4A1.32,1.32,0,0,1,76.27,18.53Z" style="fill:#d9a380;fill-rule:evenodd"/><path d="M61.89,3.6a18.43,18.43,0,0,0-3.16,1.17,1.32,1.32,0,0,0-.57,1.85l6,10.42a1.32,1.32,0,0,0,2.46-.66v-12A1.32,1.32,0,0,0,65.21,3,18.43,18.43,0,0,0,61.89,3.6Z" style="fill:#d9a380;fill-rule:evenodd"/></svg>