<svg id="c9afa435-1b00-4878-9099-8b63abdc3c8d" data-name="Layer 1" xmlns="http://www.w3.org/2000/svg" viewBox="0 0 11.55 15.5"><title>social--yelp</title><path d="M4,8,7,9.5a.69.69,0,0,1-.14,1.29l-3.26.81A.69.69,0,0,1,2.76,11,6,6,0,0,1,3,8.42.69.69,0,0,1,4,8Z" transform="translate(-2.73 -0.75)" style="fill:#7d868c;fill-rule:evenodd"/><path d="M5.2,14.24l2.25-2.49a.69.69,0,0,1,1.21.49l-.12,3.36a.69.69,0,0,1-.81.66,6,6,0,0,1-2.4-1A.69.69,0,0,1,5.2,14.24Z" transform="translate(-2.73 -0.75)" style="fill:#7d868c;fill-rule:evenodd"/><path d="M10.53,10.92l3.19,1a.69.69,0,0,1,.41,1,6,6,0,0,1-1.6,2,.69.69,0,0,1-1-.17L9.73,11.94A.69.69,0,0,1,10.53,10.92Z" transform="translate(-2.73 -0.75)" style="fill:#7d868c;fill-rule:evenodd"/><path d="M13.77,8.88l-3.23.93a.69.69,0,0,1-.76-1.05L11.66,6a.69.69,0,0,1,1-.13,6,6,0,0,1,1.53,2.1A.69.69,0,0,1,13.77,8.88Z" transform="translate(-2.73 -0.75)" style="fill:#7d868c;fill-rule:evenodd"/><path d="M6.23,1.05a9.66,9.66,0,0,0-1.66.61.69.69,0,0,0-.3,1L7.43,8.09a.69.69,0,0,0,1.29-.35V1.44A.69.69,0,0,0,8,.75,9.66,9.66,0,0,0,6.23,1.05Z" transform="translate(-2.73 -0.75)" style="fill:#7d868c;fill-rule:evenodd"/></svg>