<svg id="2eacb1de-c8e7-4d20-bd92-47170e59694d" data-name="Layer 1" xmlns="http://www.w3.org/2000/svg" viewBox="0 0 15.36 15.36"><title>social--instagram</title><path d="M16.18,8.5q0,2.29,0,3.17a4.69,4.69,0,0,1-1.24,3.22,4.69,4.69,0,0,1-3.22,1.24q-.88,0-3.17,0t-3.17,0a4.69,4.69,0,0,1-3.22-1.24A4.7,4.7,0,0,1,.87,11.67Q.82,10.79.82,8.5T.87,5.33A4.7,4.7,0,0,1,2.11,2.11,4.69,4.69,0,0,1,5.33.87q.88,0,3.17,0t3.17,0a4.69,4.69,0,0,1,3.22,1.24,4.69,4.69,0,0,1,1.24,3.22Q16.18,6.21,16.18,8.5ZM9.27,2.2H6.68l-1,0a7.81,7.81,0,0,0-1,.1A4,4,0,0,0,4,2.51,2.61,2.61,0,0,0,2.51,4a4.05,4.05,0,0,0-.18.72,7.83,7.83,0,0,0-.1,1q0,.61,0,1c0,.24,0,.59,0,1.05s0,.72,0,.77,0,.3,0,.76,0,.81,0,1.06,0,.56,0,1a7.83,7.83,0,0,0,.1,1,4,4,0,0,0,.18.71A2.61,2.61,0,0,0,4,14.49a4,4,0,0,0,.72.18,7.81,7.81,0,0,0,1,.1l1,0h3.64l1,0a7.81,7.81,0,0,0,1-.1,3.92,3.92,0,0,0,.71-.18A2.61,2.61,0,0,0,14.49,13a3.92,3.92,0,0,0,.18-.71,7.81,7.81,0,0,0,.1-1q0-.61,0-1c0-.24,0-.59,0-1.06s0-.72,0-.76,0-.3,0-.77,0-.81,0-1.05,0-.56,0-1a7.81,7.81,0,0,0-.1-1A4,4,0,0,0,14.49,4,2.61,2.61,0,0,0,13,2.51a3.92,3.92,0,0,0-.71-.18,7.81,7.81,0,0,0-1-.1l-1,0Zm2,3.52A3.8,3.8,0,0,1,12.44,8.5,3.93,3.93,0,0,1,8.5,12.44,3.93,3.93,0,0,1,4.56,8.5,3.93,3.93,0,0,1,8.5,4.56,3.8,3.8,0,0,1,11.29,5.71Zm-1,4.6a2.56,2.56,0,0,0,0-3.62,2.56,2.56,0,0,0-3.62,0,2.56,2.56,0,0,0,0,3.62,2.56,2.56,0,0,0,3.62,0Zm2.94-6.56a.92.92,0,0,1,0,1.3.92.92,0,0,1-1.57-.65.92.92,0,0,1,1.57-.65Z" transform="translate(-0.82 -0.82)" style="fill:#7d868c"/></svg>