<svg data-name="Layer 1" xmlns="http://www.w3.org/2000/svg" viewBox="0 0 53.64 54.21"><defs><linearGradient id="a" y1="27.1" x2="53.64" y2="27.1" gradientUnits="userSpaceOnUse"><stop offset="0" stop-color="#d9a380"/><stop offset="1" stop-color="#895b4d"/></linearGradient></defs><path d="M53.64 26.9c0-7.08-4.85-12-11.6-12-.44 0-.86 0-1.28.06a19 19 0 0 0 4.05-5.24A8 8 0 0 0 43.44.89C43.13.58 42.31-.2 41.79.32S41 1.9 41.53 2.44a4.46 4.46 0 0 0 1.11.8 5.68 5.68 0 0 1 1.27.91 1.56 1.56 0 0 1 .36 1.71c-.58 1.71-4 5.31-5.55 6.89v-.49A12 12 0 0 0 26.73 0c-6.91 0-11.84 4.77-11.84 11.6 0 .4 0 .79.05 1.18-1.55-1.57-5-5.21-5.58-6.92a1.56 1.56 0 0 1 .36-1.71A5.73 5.73 0 0 1 11 3.24a4.48 4.48 0 0 0 1.11-.8c.54-.54.18-1.68-.26-2.12s-1.35.26-1.66.57a8 8 0 0 0-1.37 8.82 18.89 18.89 0 0 0 4 5.21h-.59A12 12 0 0 0 0 26.9c0 6.91 4.77 11.84 11.6 11.84.43 0 .86 0 1.27-.06-2.08 2.08-3.79 4-4.5 5.72a8.14 8.14 0 0 0 1.4 9c.32.32 1.17 1.11 1.7.58s.82-1.62.26-2.17A4.59 4.59 0 0 0 10.6 51a5.78 5.78 0 0 1-1.3-.93 1.6 1.6 0 0 1-.37-1.75c.64-1.86 4.53-5.91 6-7.34v.38a12 12 0 0 0 11.8 12.28c7.08 0 12-4.85 12-11.6v-1.07c1.43 1.43 5.33 5.49 6 7.34a1.6 1.6 0 0 1-.37 1.75A5.84 5.84 0 0 1 43 51a4.6 4.6 0 0 0-1.14.82c-.56.56-.19 1.72.26 2.17s1.38-.27 1.7-.58a8.14 8.14 0 0 0 1.4-9c-.71-1.71-2.41-3.62-4.47-5.69h.58A12 12 0 0 0 53.64 26.9zm-19.53-16q0-.29-.12-.57.07.27.12.56zm-.16-.75c-.05-.18-.11-.36-.17-.54.06.17.11.39.16.53zm-.24-.72c-.07-.17-.14-.34-.22-.5.08.16.15.32.22.5zm-.3-.68c-.08-.16-.17-.32-.27-.48.09.16.18.32.26.48zm-6.67-4a7.44 7.44 0 0 1 6.34 3.4 25.89 25.89 0 0 1-12.64 0 7.09 7.09 0 0 0-1 2.83 25.87 25.87 0 0 0 14.64 0 7.81 7.81 0 0 1 .1 1.19 8.42 8.42 0 0 1-.68 3.28 25.89 25.89 0 0 1-13.38 0c.12.29.26.58.4.87a9.72 9.72 0 0 1-1.15-4.41 7 7 0 0 1 7.36-7.14zm6.78 10.74c-.13.3-.27.6-.43.89q.24-.38.43-.87zm-.48 1q-.21.39-.45.76.24-.38.41-.76zm-.64 1l-.38.54zm-.61.85l-.41.51zm-.56.7c-1.4 1.66-3.06 3.17-4.44 4.66-.94-.92-1.91-1.91-2.93-2.87a25.46 25.46 0 0 1-2.15-2.64q.29.42.61.83a25.92 25.92 0 0 0 8.9.05zm-9.55-.89c-.18-.26-.36-.53-.52-.8.16.31.33.58.51.84zm-.61-.95c-.16-.27-.31-.54-.45-.81.13.31.28.61.44.85zm-9.13 17a7 7 0 0 1-7.17-7.3 7.34 7.34 0 0 1 7.41-7.49c4.87 0 8.22 4.33 11.47 7.37-1.09 1.14-2.28 2.32-3.42 3.58-2.39 2.1-5.16 3.86-8.3 3.86zm21.28 11.24c.1-.16.19-.33.27-.51q-.12.26-.27.51zm.34-.65c.08-.17.15-.34.21-.52-.06.17-.13.34-.21.51zm.27-.7zm.2-.73c0-.19.07-.38.1-.57-.03.21-.06.38-.13.57zm.12-.7a25.87 25.87 0 0 0-14.62 0 7.47 7.47 0 0 0 1 2.81 25.91 25.91 0 0 1 12.62 0 7.28 7.28 0 0 1-6.45 3.37 7.32 7.32 0 0 1-7.32-7.49c0-4.89 4.28-8.17 7.32-11.43 1.14 1.09 2.34 2.29 3.6 3.44.35.39.68.79 1 1.2a25.87 25.87 0 0 0-9 0 13.68 13.68 0 0 0-2.27 3.62 25.89 25.89 0 0 1 13.45 0 9.08 9.08 0 0 1 .72 3.45 8.3 8.3 0 0 1-.05 1.03zm-2.69-7.92c.16.21.32.42.48.64-.16-.21-.32-.38-.48-.63zm.71 1c.13.19.25.37.37.56-.12-.21-.25-.39-.38-.58zm.74 1.22l.17.29zm-3-10.11c.88-.9 1.82-1.83 2.75-2.8 2.52-2.4 5.53-4.6 9-4.6 4.28 0 7.24 3.13 7.24 7.49a7.32 7.32 0 0 1-7.49 7.32c-4.97-.04-8.26-4.39-11.54-7.44z" fill="url(#a)"/></svg>