<svg data-name="Layer 1" xmlns="http://www.w3.org/2000/svg" viewBox="0 0 212.75 40.12"><title>logo</title><g fill="#7d868c"><path d="M207.26 16.03v.47h3.17l-4.21 10.44-3.91-10.44h2.26v-.47h-6.71v.47h1.42l.84 2.19-3.51 8.32-3.77-10.51h2.8v-.47h-8.12v.47h2.29l5.43 15.09 5.11-12.22 4.59 12.22 6.03-15.09h1.78v-.47h-5.49zM172 23.27a15.61 15.61 0 0 0 .37 3.81 5.84 5.84 0 0 0 1 2.17 2.78 2.78 0 0 0 1.41 1 6.39 6.39 0 0 0 3.44 0 2.8 2.8 0 0 0 1.41-1 5.84 5.84 0 0 0 1-2.17 15.61 15.61 0 0 0 .37-3.81 18 18 0 0 0-.27-3.39 6.29 6.29 0 0 0-.83-2.22 3.19 3.19 0 0 0-1.4-1.23 5.54 5.54 0 0 0-4 0 3.19 3.19 0 0 0-1.4 1.23 6.35 6.35 0 0 0-.83 2.22 18 18 0 0 0-.27 3.39m-3.37 0a6.65 6.65 0 0 1 .72-3.07 8.53 8.53 0 0 1 4.38-4 6.85 6.85 0 0 1 5.49 0 8.53 8.53 0 0 1 4.38 4 6.65 6.65 0 0 1 .73 3.07 6.78 6.78 0 0 1-.68 3 8.33 8.33 0 0 1-4.28 4.09 7.21 7.21 0 0 1-5.79 0 8.35 8.35 0 0 1-4.28-4.09 6.78 6.78 0 0 1-.67-3M151.73 30h2.59V16.5h-2.59V16h5.42v3.4h.07a7 7 0 0 1 .43-1.14 5.18 5.18 0 0 1 .84-1.23 4.77 4.77 0 0 1 1.3-1 3.83 3.83 0 0 1 1.83-.41 3.31 3.31 0 0 1 1.35.25 3 3 0 0 1 .94.64 2.41 2.41 0 0 1 .54.89 3.18 3.18 0 0 1 .17 1 1.75 1.75 0 0 1-.51 1.48 1.94 1.94 0 0 1-1.18.37c-1 0-1.48-.32-1.48-.94a1.39 1.39 0 0 1 .07-.49c0-.12.09-.25.15-.37a2.84 2.84 0 0 0 .15-.42 2.59 2.59 0 0 0 .07-.67q0-1.08-1.18-1.08a2.06 2.06 0 0 0-1.14.41 4.25 4.25 0 0 0-1.13 1.18 7.63 7.63 0 0 0-.88 1.87 8.18 8.18 0 0 0-.35 2.51V30h2.93v.47h-8.42zM143.7 22.77a21.05 21.05 0 0 0-.17-2.78 7.13 7.13 0 0 0-.59-2.11 3.16 3.16 0 0 0-1.18-1.35 3.61 3.61 0 0 0-1.94-.47 4.3 4.3 0 0 0-2.06.44 4 4 0 0 0-1.31 1.11 4.07 4.07 0 0 0-.59 1 6.51 6.51 0 0 0-.35 1.28 13.51 13.51 0 0 0-.18 1.7c0 .64-.05 1.4-.05 2.27a16 16 0 0 0 .17 2.29 7.07 7.07 0 0 0 .64 2.14 4.09 4.09 0 0 0 1.33 1.57 3.86 3.86 0 0 0 2.27.6 3.91 3.91 0 0 0 2.19-.54 3.27 3.27 0 0 0 1.21-1.55 8.21 8.21 0 0 0 .51-2.44c.07-1 .1-2 .1-3.18M129.79 30h2.59V6.66h-2.59v-.47h5.49v12.53h.07A4.9 4.9 0 0 1 137 16.5a4.67 4.67 0 0 1 3-.91 6.18 6.18 0 0 1 2.73.62 7.87 7.87 0 0 1 2.27 1.66 7.77 7.77 0 0 1 1.55 2.41 7.63 7.63 0 0 1 0 5.85 8.41 8.41 0 0 1-1.6 2.48 7.83 7.83 0 0 1-2.34 1.72 6.43 6.43 0 0 1-2.81.64 4.41 4.41 0 0 1-1.94-.39 4.72 4.72 0 0 1-1.31-.93 4 4 0 0 1-.79-1.11 8.58 8.58 0 0 1-.41-1h-.07v2.93h-5.42zM106.57 30h2.59V6.66h-2.59v-.47h5.49v13.24h.07a7.2 7.2 0 0 1 .57-1.09 5.28 5.28 0 0 1 1.1-1.25 6.49 6.49 0 0 1 1.68-1 6.1 6.1 0 0 1 2.38-.42 5.77 5.77 0 0 1 3.62 1.08 4.06 4.06 0 0 1 1.4 3.43V30h2.59v.47h-8.08V30H120V19.13a3.51 3.51 0 0 0-.62-2.16 2.25 2.25 0 0 0-1.94-.84 4.69 4.69 0 0 0-2.06.47 5.43 5.43 0 0 0-1.72 1.31 6.21 6.21 0 0 0-1.16 2 7.11 7.11 0 0 0-.42 2.49V30h2.59v.47h-8.08zM97.75 20.54a12.68 12.68 0 0 0-.1-1.56 4.69 4.69 0 0 0-.42-1.45 2.56 2.56 0 0 0-1-1.06 3.34 3.34 0 0 0-1.77-.4 3.19 3.19 0 0 0-2.59 1 5.35 5.35 0 0 0-.87 3.47 9.69 9.69 0 0 0 .15 1.82 3.62 3.62 0 0 0 .55 1.39 2.54 2.54 0 0 0 1.08.9 4.25 4.25 0 0 0 1.72.3 2.79 2.79 0 0 0 2.5-1.09 6 6 0 0 0 .74-3.32m-5.45 10.95l-.89.51a3.32 3.32 0 0 0-.81.72 3.64 3.64 0 0 0-.57 1 5 5 0 0 0 .2 3.47 3.79 3.79 0 0 0 1.08 1.28 4.1 4.1 0 0 0 1.47.69 6.55 6.55 0 0 0 1.58.2 6.26 6.26 0 0 0 2.21-.37 5.6 5.6 0 0 0 1.72-1 4.36 4.36 0 0 0 1.11-1.43 3.84 3.84 0 0 0 .38-1.56 3.18 3.18 0 0 0-1-2.68 4.5 4.5 0 0 0-2.81-.79zm-5.05-3.2a3.41 3.41 0 0 1 .34-1.57 4.5 4.5 0 0 1 .83-1.14 4.58 4.58 0 0 1 1-.8c.37-.2.7-.37 1-.5a4.21 4.21 0 0 1-2-3.64 4 4 0 0 1 .57-2.12 5.63 5.63 0 0 1 1.45-1.6 6.52 6.52 0 0 1 1.94-1 6.78 6.78 0 0 1 2-.34 5.33 5.33 0 0 1 2.61.6 7.4 7.4 0 0 1 1.6 1.11 4 4 0 0 1 1.1-1.18 3 3 0 0 1 1.8-.54 2.75 2.75 0 0 1 1.25.29 1.24 1.24 0 0 1 .57 1.23 1.1 1.1 0 0 1-.3.91 1.29 1.29 0 0 1-.79.3.79.79 0 0 1-.67-.27 3.77 3.77 0 0 1-.35-.57c-.1-.2-.21-.39-.32-.57a.56.56 0 0 0-.51-.27 1.1 1.1 0 0 0-.69.29 3.42 3.42 0 0 0-.62.66 7.63 7.63 0 0 1 .77 1.15 4 4 0 0 1 .47 2 3.54 3.54 0 0 1-.5 1.85 5.45 5.45 0 0 1-1.33 1.48 6.18 6.18 0 0 1-1.92 1 7.26 7.26 0 0 1-2.24.35 6 6 0 0 1-2.06-.32 13.53 13.53 0 0 1-1.35-.56l-.79.37a3.5 3.5 0 0 0-.77.51 2.64 2.64 0 0 0-.59.72 1.92 1.92 0 0 0-.24 1 1.6 1.6 0 0 0 .2.84 1.28 1.28 0 0 0 .52.5 2.35 2.35 0 0 0 .72.24 4.83 4.83 0 0 0 .84.07h5.32a5.82 5.82 0 0 1 3.76 1.13 4.3 4.3 0 0 1 1.4 3.56 5.65 5.65 0 0 1-.64 2.69 7 7 0 0 1-1.7 2.11 7.81 7.81 0 0 1-2.44 1.38 8.45 8.45 0 0 1-2.83.49 9 9 0 0 1-2.41-.3 6.89 6.89 0 0 1-1.88-.83 4 4 0 0 1-1.26-1.26 3.12 3.12 0 0 1-.46-1.65 3.6 3.6 0 0 1 .35-1.6 4.73 4.73 0 0 1 .91-1.28 5.87 5.87 0 0 1 1.26-1 10.15 10.15 0 0 1 1.41-.67v-.07a5.91 5.91 0 0 1-3.29-.72 2.78 2.78 0 0 1-1.06-2.48M76.1 8.18a1.79 1.79 0 1 1 3.05 1.26 1.79 1.79 0 0 1-3.05-1.26M73.91 30h2.59V16.5h-2.59V16h5.49v14H82v.47h-8.09zM51.91 30h2.59V6.66h-2.59v-.47h5.49v13.24h.07a7 7 0 0 1 .53-1.09 5.26 5.26 0 0 1 1.09-1.25 6.51 6.51 0 0 1 1.69-1 6.07 6.07 0 0 1 2.37-.42 5.77 5.77 0 0 1 3.62 1.08 4.06 4.06 0 0 1 1.4 3.43V30h2.6v.47h-8.05V30h2.59V19.13A3.53 3.53 0 0 0 64.7 17a2.25 2.25 0 0 0-1.94-.84 4.7 4.7 0 0 0-2.06.47 5.42 5.42 0 0 0-1.7 1.28 6.22 6.22 0 0 0-1.16 2 7.18 7.18 0 0 0-.42 2.49V30H60v.47h-8.09z"/></g><path d="M19.52 35.68a5.35 5.35 0 0 1-5.35-5.47c0-3.57 3.13-6 5.35-8.35.83.8 1.71 1.67 2.63 2.51 1.54 1.72 2.84 3.73 2.84 6a5.16 5.16 0 0 1-5.47 5.29m-16-16a5.36 5.36 0 0 1 5.41-5.47c3.56 0 6 3.16 8.38 5.38-.8.83-1.66 1.7-2.5 2.62C13 23.7 11 25 8.71 25a5.11 5.11 0 0 1-5.23-5.35m16-16.16A5.36 5.36 0 0 1 25 8.89c0 3.59-3.22 6-5.44 8.44-.69-.67-1.4-1.39-2.14-2.1-1.7-1.85-3.24-4-3.24-6.52a5.11 5.11 0 0 1 5.35-5.23m16.15 16.16A5.35 5.35 0 0 1 30.21 25c-3.6 0-6-3.18-8.41-5.4.64-.66 1.33-1.34 2-2 1.84-1.75 4-3.36 6.58-3.36a5.16 5.16 0 0 1 5.29 5.47m3.48 0c0-5.17-3.54-8.77-8.47-8.77h-.93a13.87 13.87 0 0 0 3-3.83 5.8 5.8 0 0 0-1-6.44c-.23-.23-.83-.79-1.21-.42s-.59 1.15-.19 1.55a3.26 3.26 0 0 0 .81.58 4.14 4.14 0 0 1 .93.66 1.14 1.14 0 0 1 .27 1.25c-.43 1.25-2.91 3.88-4.05 5v-.36a8.78 8.78 0 0 0-8.77-9c-5 0-8.65 3.48-8.65 8.47v.86C9.78 8.19 7.27 5.53 6.84 4.28A1.14 1.14 0 0 1 7.1 3a4.18 4.18 0 0 1 .9-.63 3.27 3.27 0 0 0 .81-.58c.4-.4.13-1.23-.19-1.55s-1 .19-1.21.42a5.81 5.81 0 0 0-1 6.44 13.79 13.79 0 0 0 2.94 3.8h-.43A8.78 8.78 0 0 0 0 19.64c0 5 3.48 8.65 8.47 8.65h.93a15.08 15.08 0 0 0-3.28 4.18 6 6 0 0 0 1 6.6c.23.23.85.81 1.24.43s.6-1.18.19-1.59a3.35 3.35 0 0 0-.83-.6 4.22 4.22 0 0 1-.95-.68 1.17 1.17 0 0 1-.27-1.28C7 34 9.83 31 10.88 29.95v.28a8.76 8.76 0 0 0 8.65 9c5.17 0 8.77-3.54 8.77-8.47v-.78c1 1 3.89 4 4.36 5.36a1.17 1.17 0 0 1-.27 1.28 4.26 4.26 0 0 1-.95.68 3.36 3.36 0 0 0-.83.6c-.41.41-.14 1.26.19 1.59s1-.19 1.24-.43a6 6 0 0 0 1-6.6 15.05 15.05 0 0 0-3.26-4.15h.43a8.76 8.76 0 0 0 9-8.65M14.26 31.14A5.45 5.45 0 0 0 15 33.2a18.92 18.92 0 0 1 9.22 0 5.21 5.21 0 0 0 .7-2.07 18.89 18.89 0 0 0-10.68 0m2-5.89a10 10 0 0 0-1.66 2.64 18.91 18.91 0 0 1 9.83 0 11 11 0 0 0-1.58-2.62 18.89 18.89 0 0 0-6.58 0M24.92 8a5.31 5.31 0 0 0-.77-2 18.91 18.91 0 0 1-9.23 0 5.18 5.18 0 0 0-.69 2 18.89 18.89 0 0 0 10.69 0m-2.12 5.93a10.31 10.31 0 0 0 1.69-2.64 18.91 18.91 0 0 1-9.77 0 11.29 11.29 0 0 0 1.57 2.62 18.93 18.93 0 0 0 6.51 0" fill="#d9a380"/></svg>