<svg data-name="Layer 1" xmlns="http://www.w3.org/2000/svg" viewBox="0 0 155.37 155.37"><title>service--info</title><circle cx="77.68" cy="77.68" r="76.18" fill="#fff" stroke="#e8e3db" stroke-miterlimit="10" stroke-width="3"/><path d="M83.42 87.73v-3.08a.59.59 0 0 0-.62-.65H81v-9.83a.59.59 0 0 0-.62-.62h-6.21a.59.59 0 0 0-.62.62v3.08a.59.59 0 0 0 .62.62H76V84h-1.83a.59.59 0 0 0-.62.62v3.08a.59.59 0 0 0 .62.62h8.63a.59.59 0 0 0 .62-.62zM81 70.48v-3.09a.59.59 0 0 0-.62-.62h-3.7a.59.59 0 0 0-.62.62v3.08a.59.59 0 0 0 .62.62h3.7a.59.59 0 0 0 .62-.62z" fill="#1e2b45"/><path d="M77.69 55.74a21.95 21.95 0 1 1-22 21.91 21.93 21.93 0 0 1 22-21.91z" fill="none" stroke="#1e2b45" stroke-miterlimit="10" stroke-width="2"/></svg>