<svg data-name="Layer 1" xmlns="http://www.w3.org/2000/svg" viewBox="0 0 155.37 155.37"><title>service--arrow</title><circle cx="77.68" cy="77.68" r="76.18" fill="#fff" stroke="#e8e3db" stroke-miterlimit="10" stroke-width="3"/><path d="M64.44 74.9l8.5 8.52 3.15-2.78-4-3.57h11a3.85 3.85 0 0 1 3.72 3.85 3.9 3.9 0 0 1-3.77 4h-2.17V89h2.11a8 8 0 0 0 1.71-15.73 11.78 11.78 0 0 0-2.56-.27h-10l-.19-.38 3.82-3.42L73 66.37z" fill="#1e2b45"/><path d="M77.69 55.74a21.95 21.95 0 1 1-22 21.91 21.93 21.93 0 0 1 22-21.91z" fill="none" stroke="#1e2b45" stroke-miterlimit="10" stroke-width="2"/></svg>