<svg data-name="Layer 1" xmlns="http://www.w3.org/2000/svg" viewBox="0 0 155.37 155.37"><title>service--check</title><circle cx="77.68" cy="77.68" r="76.18" fill="#fff" stroke="#e8e3db" stroke-miterlimit="10" stroke-width="3"/><path d="M89 62.29h6.24c1.2 0 1.29.09 1.29 1.33v33c0 1.31-.08 1.39-1.42 1.39H60.2c-1.32 0-1.39-.07-1.39-1.42V63.68c0-1.33.07-1.39 1.41-1.39h5.93v-3.78c0-.83.23-1.17 1.09-1.15 2.89 0 2.38-.22 2.42 2.39v2.47h15.86v-3.7c0-.83.23-1.17 1.09-1.16 2.88 0 2.4-.22 2.43 2.38-.04.82-.04 1.64-.04 2.55zm-22.84 1.94H62c-1.11 0-1.18.08-1.18 1.22v29.59c0 1.17 0 1.21 1.17 1.21h31.39c1.16 0 1.17 0 1.17-1.2V65.46c0-.18.06-.41 0-.54s-.38-.64-.58-.65c-1.62-.05-3.23 0-4.89 0v.63c0 2.52.55 2.35-2.57 2.34h-.18c-.5 0-.78-.26-.76-.82s0-1.4 0-2.09H69.65v2.18c0 .7-.47.8-.94.71-.85-.17-1.94.59-2.54-.58-.09-.17 0-.42 0-.64-.01-.56-.01-1.11-.01-1.77zM76 83.18c-1.68-1.62-3.37-3.23-5-4.86a1 1 0 0 0-1.57 0c-.37.41-.78.79-1.16 1.18-.79.81-.79 1 0 1.8l7.3 7c.92.88 1.07.89 1.93 0q4.71-4.93 9.4-9.88c2-2.07 2-1.7-.11-3.7-1-.91-1.09-.9-2 .05L76.5 83.6c-.21-.18-.35-.3-.5-.42z" fill="#1e2b45"/></svg>