<svg data-name="Layer 1" xmlns="http://www.w3.org/2000/svg" viewBox="0 0 80.24 40.53"><title>social--yelp-full</title><path d="M77.1 21.53h-.14a4.35 4.35 0 0 0 2.93-5.94 14.29 14.29 0 0 0-3.69-5.07 4.35 4.35 0 0 0-2.87-1.08 4.28 4.28 0 0 0-3.69 2v-7.1A4.33 4.33 0 0 0 65.32 0a20.07 20.07 0 0 0-4.21.68A21.52 21.52 0 0 0 57.42 2a4.34 4.34 0 0 0-1.89 6.09l3.54 6.13a4.35 4.35 0 0 0-6.15 2.45l-.13.39a7.79 7.79 0 0 0-2.08-1.43 8.59 8.59 0 0 0-3.66-.82 8.25 8.25 0 0 0-2.79.48 4.67 4.67 0 0 0-5.11.5V15a4.67 4.67 0 1 0-9.34 0v2.58a8.58 8.58 0 0 0-6.22-2.6 8.8 8.8 0 0 0-5.47 2 4.71 4.71 0 0 0-8.33 1.36l-.2.64L9 17.61a4.71 4.71 0 0 0-6.3-2.17 4.71 4.71 0 0 0-2.17 6.3l4.42 9.16a4.49 4.49 0 0 0-2.72 3 4.54 4.54 0 0 0 .69 4 5.26 5.26 0 0 0 4.37 2h.26c3.4 0 5.89-1.68 6.83-4.62.39-1.21.83-2.63 1.29-4.09.08.19.17.37.27.55a8.13 8.13 0 0 0 7.58 4.33 9.36 9.36 0 0 0 6.87-2.5 4.66 4.66 0 0 0 7 1.42v.85a4.67 4.67 0 0 0 9.34.12 8.41 8.41 0 0 0 6.07-2.35 7.87 7.87 0 0 0 1.2-1.46 4 4 0 0 0 3.52.16 4.33 4.33 0 0 0 1 .9 14.58 14.58 0 0 0 5.8 2.35 4.37 4.37 0 0 0 .72.06 4.32 4.32 0 0 0 4.34-4.19v-.15l.08.13a4.34 4.34 0 0 0 6.45 1 14.58 14.58 0 0 0 3.85-4.93 4.34 4.34 0 0 0-2.58-6z" fill="#fff"/><path d="M55.89 27.88a.92.92 0 1 1-.92.92.91.91 0 0 1 .92-.92zm0 1.7a.78.78 0 1 0-.78-.78.77.77 0 0 0 .78.78zm-.34-1.31h.39c.25 0 .37.09.37.31a.27.27 0 0 1-.28.29l.31.47h-.16l-.29-.46h-.19v.46h-.15zm.15.47h.18c.15 0 .29 0 .29-.17s-.13-.17-.24-.17h-.23z" fill="#d9a380"/><path d="M36.14 31.37a1.65 1.65 0 1 1-3.3 0V15a1.65 1.65 0 0 1 3.3 0z" fill="#d9a380" fill-rule="evenodd"/><path d="M21.87 26.78h6a1.77 1.77 0 0 0 1.6-1.84v-.09c-.29-6-4.16-6.89-5.91-6.89s-6 1.08-6 7.77c0 2.52.57 7.33 5.86 7.33 4.57 0 5.6-2.64 5.6-3.31a1.42 1.42 0 0 0-1.76-1.52c-.76.26-1.8 1.77-3.47 1.77a2.64 2.64 0 0 1-2.71-2.66c.08-.34.28-.54.79-.56zm-.72-2.95a2.61 2.61 0 1 1 5.21 0c0 .12-.07.19-.14.19h-4.93c-.07.05-.15-.02-.14-.18zM8.34 31L3.19 20.42a1.69 1.69 0 0 1 3-1.49l4 8.17 2.45-7.93a1.69 1.69 0 1 1 3.24 1s-2.76 9-4.42 14.2c-.55 1.71-2 2.56-4.14 2.51s-2.42-1.3-2.18-2.12a1.65 1.65 0 0 1 1.76-1.19c1.92.01 2.17-1.15 1.44-2.57zM52.42 24.82c0-2.16-.27-5.13-3-6.42a5.37 5.37 0 0 0-4.9.12 8.71 8.71 0 0 0-.84.55 1.65 1.65 0 0 0-3.25.39v16.4a1.65 1.65 0 1 0 3.3 0v-4.3A4.16 4.16 0 0 0 46.61 33c6.26.12 5.85-6.69 5.81-8.18zm-3.26 1.25c0 1.3 0 3.64-2.37 3.64s-2.37-2.34-2.37-3.64v-1.19c0-1.3 0-3.64 2.37-3.64s2.37 2.34 2.37 3.64z" fill="#d9a380"/><path d="M57.62 16.9l5.76 2.81a1.32 1.32 0 0 1-.26 2.47l-6.22 1.55a1.32 1.32 0 0 1-1.63-1.13 11.36 11.36 0 0 1 .52-4.93 1.32 1.32 0 0 1 1.83-.77zM59.92 28.75L64.21 24a1.32 1.32 0 0 1 2.3.93l-.22 6.4a1.32 1.32 0 0 1-1.54 1.26 11.46 11.46 0 0 1-4.59-1.86 1.32 1.32 0 0 1-.24-1.98zM70.08 22.42l6.09 2a1.32 1.32 0 0 1 .83 1.8 11.46 11.46 0 0 1-3 3.9 1.32 1.32 0 0 1-2-.32l-3.39-5.43a1.32 1.32 0 0 1 1.47-1.95zM76.27 18.53l-6.15 1.77a1.32 1.32 0 0 1-1.46-2l3.58-5.3a1.32 1.32 0 0 1 2-.25 11.36 11.36 0 0 1 2.91 4 1.32 1.32 0 0 1-.88 1.78zM61.89 3.6a18.43 18.43 0 0 0-3.16 1.17 1.32 1.32 0 0 0-.57 1.85l6 10.42a1.32 1.32 0 0 0 2.46-.66v-12A1.32 1.32 0 0 0 65.21 3a18.43 18.43 0 0 0-3.32.6z" fill="#d9a380" fill-rule="evenodd"/></svg>