<svg data-name="Layer 1" xmlns="http://www.w3.org/2000/svg" viewBox="0 0 15.36 15.36"><title>social--instagram</title><path d="M15.36 7.68v3.17a4.69 4.69 0 0 1-1.24 3.22 4.69 4.69 0 0 1-3.22 1.24H4.56a4.69 4.69 0 0 1-3.22-1.24 4.7 4.7 0 0 1-1.29-3.22Q0 9.97 0 7.68t.05-3.17a4.7 4.7 0 0 1 1.24-3.22A4.69 4.69 0 0 1 4.51.05h6.34a4.69 4.69 0 0 1 3.22 1.24 4.69 4.69 0 0 1 1.24 3.22q.05.88.05 3.17zm-6.91-6.3H4.86a7.81 7.81 0 0 0-1 .1 4 4 0 0 0-.68.21 2.61 2.61 0 0 0-1.49 1.49 4.05 4.05 0 0 0-.18.72 7.83 7.83 0 0 0-.1 1V10.54a7.83 7.83 0 0 0 .1 1 4 4 0 0 0 .18.71 2.61 2.61 0 0 0 1.49 1.42 4 4 0 0 0 .72.18 7.81 7.81 0 0 0 1 .1H10.54a7.81 7.81 0 0 0 1-.1 3.92 3.92 0 0 0 .71-.18 2.61 2.61 0 0 0 1.42-1.49 3.92 3.92 0 0 0 .18-.71 7.81 7.81 0 0 0 .1-1v-1-1.06-.76-.77-1.05-1a7.81 7.81 0 0 0-.1-1 4 4 0 0 0-.18-.65 2.61 2.61 0 0 0-1.49-1.49 3.92 3.92 0 0 0-.71-.18 7.81 7.81 0 0 0-1-.1h-1zm2 3.52a3.8 3.8 0 0 1 1.17 2.78 3.93 3.93 0 0 1-3.94 3.94 3.93 3.93 0 0 1-3.94-3.94 3.93 3.93 0 0 1 3.94-3.94 3.8 3.8 0 0 1 2.79 1.15zm-1 4.6a2.56 2.56 0 0 0 0-3.62 2.56 2.56 0 0 0-3.62 0 2.56 2.56 0 0 0 0 3.62 2.56 2.56 0 0 0 3.62 0zm2.94-6.56a.92.92 0 0 1 0 1.3.92.92 0 0 1-1.57-.65.92.92 0 0 1 1.57-.65z" fill="#7d868c"/></svg>